<?xml version="1.0" encoding="UTF-8"?>
<svg id="Layer_1" data-name="Layer 1" xmlns="http://www.w3.org/2000/svg" viewBox="0 0 963.12 572">
  <defs>
    <style>
      .cls-1 {
        font-family: AnimalSilence, 'Animal Silence';
        font-size: 29.78px;
        letter-spacing: .1em;
      }

      .cls-1, .cls-2 {
        fill: #fff;
      }

      .cls-3 {
        fill: none;
        stroke: #fff;
        stroke-miterlimit: 10;
        stroke-width: 11px;
      }
    </style>
  </defs>
  <path class="cls-3" d="m717.32,103.44h-25.76v239.25c0,3.57-2.9,6.47-6.47,6.47h-408.76c-3.57,0-6.47-2.9-6.47-6.47V103.44h-25.3c-2.45,0-3.16-3.02-.92-3.91l113.73-45.15L480.03,5.67c.57-.23,1.23-.23,1.82,0l122.65,48.71,113.73,45.15c2.24.89,1.54,3.91-.91,3.91Z"/>
  <g>
    <rect class="cls-3" x="323.38" y="224.27" width="29.19" height="63.26" rx="1.58" ry="1.58"/>
    <rect class="cls-3" x="368.8" y="224.27" width="29.19" height="63.26" rx="1.58" ry="1.58"/>
    <rect class="cls-3" x="563.43" y="224.27" width="29.19" height="63.26" rx="1.58" ry="1.58"/>
    <rect class="cls-3" x="608.84" y="224.27" width="29.19" height="63.26" rx="1.58" ry="1.58"/>
  </g>
  <rect class="cls-3" x="427.19" y="235.63" width="45.66" height="98.94" rx="1.58" ry="1.58"/>
  <rect class="cls-3" x="490.19" y="235.63" width="45.66" height="98.94" rx="1.58" ry="1.58"/>
  <text class="cls-1" transform="translate(409.19 140.92)"><tspan x="0" y="0">automax</tspan></text>
  <path class="cls-3" d="m952.75,566.5H10.37c-4.15,0-6.4-5.63-3.7-9.28L254.61,214.19c.92-1.32,2.31-2.08,3.78-2.08h7.41c2.69,0,4.87,2.53,4.86,5.64l-1.61,124.12c-.02,6.87,5.41,8.11,11.35,8.11h403.86c7.22,0,8.21-9.49,8.11-17.84l-1.55-114.32c-.04-3.14,2.15-5.7,4.86-5.7h8.99c1.45,0,2.83.75,3.75,2.05l248.03,343.09c2.67,3.65.43,9.25-3.71,9.25Z"/>
  <path class="cls-2" d="m359.85,551.78l.29.02c.79.06,1.52-.44,1.75-1.19l19.23-61.66c.33-1.05-.41-2.13-1.5-2.21l-.29-.02c-.79-.06-1.52.44-1.75,1.19l-19.23,61.66c-.33,1.05.41,2.13,1.5,2.21Z"/>
  <path class="cls-2" d="m459.72,551.61h.45c.87,0,1.6-.65,1.7-1.51l6.98-61.38c.12-1.01-.68-1.9-1.69-1.9h-.45c-.87,0-1.6.65-1.7,1.51l-6.98,61.38c-.12,1.01.68,1.9,1.69,1.9Z"/>
  <path class="cls-2" d="m760.53,551.34l-.21.05c-.75.17-1.52-.18-1.88-.86l-30.98-58.35c-.53-.99.03-2.21,1.13-2.46l.21-.05c.75-.17,1.52.18,1.88.86l30.98,58.35c.53.99-.03,2.21-1.13,2.46Z"/>
  <path class="cls-2" d="m661.01,550.75l-.4.06c-.83.13-1.63-.36-1.89-1.16l-19.39-59.53c-.33-1,.32-2.05,1.36-2.21l.4-.06c.83-.13,1.63.36,1.89,1.16l19.39,59.53c.33,1-.32,2.05-1.36,2.21Z"/>
  <path class="cls-2" d="m326.79,421.55h0c-.8-.49-1.12-1.49-.76-2.35l23.84-57.46c.45-1.08,1.76-1.51,2.76-.89h0c.8.49,1.12,1.49.76,2.35l-23.84,57.46c-.45,1.08-1.76,1.51-2.76.89Z"/>
  <path class="cls-2" d="m399.63,424.6h0c-.85-.38-1.3-1.33-1.06-2.23l16.09-60.09c.3-1.13,1.55-1.72,2.62-1.25h0c.85.38,1.3,1.33,1.06,2.23l-16.09,60.09c-.3,1.13-1.55,1.72-2.62,1.25Z"/>
  <path class="cls-2" d="m554.89,423.44h0c-.93.06-1.77-.57-1.98-1.48l-13.65-60.69c-.26-1.14.57-2.25,1.74-2.32h0c.93-.06,1.77.57,1.98,1.48l13.65,60.69c.26,1.14-.57,2.25-1.74,2.32Z"/>
  <path class="cls-2" d="m630.12,420.12h0c-.91.22-1.84-.25-2.2-1.12l-23.99-57.4c-.45-1.08.17-2.31,1.31-2.59h0c.91-.22,1.84.25,2.2,1.12l23.99,57.4c.45,1.08-.17,2.31-1.31,2.59Z"/>
  <path class="cls-2" d="m476.11,425.74h0c-.91-.2-1.55-1.03-1.5-1.96l3.37-62.12c.06-1.17,1.16-2.01,2.3-1.76h0c.91.2,1.55,1.03,1.5,1.96l-3.37,62.12c-.06,1.17-1.16,2.01-2.3,1.76Z"/>
  <path class="cls-2" d="m859.37,551.61h0c-.7.22-1.46-.04-1.89-.63l-41.2-56.8c-.69-.95-.24-2.28.87-2.63h0c.7-.22,1.46.04,1.89.63l41.2,56.8c.69.95.24,2.28-.87,2.63Z"/>
  <path class="cls-2" d="m562.08,551.09l.49-.07c.95-.13,1.61-1.02,1.45-1.97l-9.89-60.23c-.15-.91-1-1.54-1.92-1.41l-.49.07c-.95.13-1.61,1.02-1.45,1.97l9.89,60.23c.15.91,1,1.54,1.92,1.41Z"/>
  <path class="cls-3" d="m253.68,418.75h0c-13.45-.07-21.62-14.86-14.51-26.28l25.05-40.23c.8-1.28,2.21-2.05,3.72-2.03l20.93.32c3.3.05,5.32,3.64,3.64,6.49l-35.11,59.62c-.78,1.32-2.2,2.13-3.73,2.12Z"/>
  <path class="cls-3" d="m694.18,409.14h0c12.81-.22,22.78-13,17.7-22.71l-17.89-34.2c-.57-1.09-1.8-1.73-3.24-1.7l-19.96.52c-3.15.08-5.6,3.19-4.43,5.61l24.58,50.71c.54,1.12,1.78,1.8,3.24,1.77Z"/>
</svg>