<?xml version="1.0" encoding="UTF-8"?>
<svg id="Layer_1" data-name="Layer 1" xmlns="http://www.w3.org/2000/svg" viewBox="0 0 1921 1081">
  <defs>
    <style>
      .cls-1 {
        opacity: .05;
      }

      .cls-2 {
        fill: #ecf0f3;
      }

      .cls-3 {
        fill: none;
        stroke: #000;
        stroke-miterlimit: 10;
      }
    </style>
  </defs>
  <g class="cls-1">
    <g>
      <g>
        <rect x="1800.5" y="1013" width="120" height="67.5"/>
        <rect class="cls-2" x="1800.5" y="945.5" width="120" height="67.5"/>
        <rect x="1800.5" y="878" width="120" height="67.5"/>
        <rect class="cls-2" x="1800.5" y="810.5" width="120" height="67.5"/>
        <rect x="1800.5" y="743" width="120" height="67.5"/>
        <rect class="cls-2" x="1800.5" y="675.5" width="120" height="67.5"/>
        <rect x="1800.5" y="608" width="120" height="67.5"/>
        <rect class="cls-2" x="1800.5" y="540.5" width="120" height="67.5"/>
        <rect x="1800.5" y="473" width="120" height="67.5"/>
        <rect class="cls-2" x="1800.5" y="405.5" width="120" height="67.5"/>
        <rect x="1800.5" y="338" width="120" height="67.5"/>
        <rect class="cls-2" x="1800.5" y="270.5" width="120" height="67.5"/>
        <rect x="1800.5" y="203" width="120" height="67.5"/>
        <rect class="cls-2" x="1800.5" y="135.5" width="120" height="67.5"/>
        <rect x="1800.5" y="68" width="120" height="67.5"/>
        <rect class="cls-2" x="1800.5" y=".5" width="120" height="67.5"/>
        <rect class="cls-2" x="1680.5" y="1013" width="120" height="67.5"/>
        <rect x="1680.5" y="945.5" width="120" height="67.5"/>
        <rect class="cls-2" x="1680.5" y="878" width="120" height="67.5"/>
        <rect x="1680.5" y="810.5" width="120" height="67.5"/>
        <rect class="cls-2" x="1680.5" y="743" width="120" height="67.5"/>
        <rect x="1680.5" y="675.5" width="120" height="67.5"/>
        <rect class="cls-2" x="1680.5" y="608" width="120" height="67.5"/>
        <rect x="1680.5" y="540.5" width="120" height="67.5"/>
        <rect class="cls-2" x="1680.5" y="473" width="120" height="67.5"/>
        <rect x="1680.5" y="405.5" width="120" height="67.5"/>
        <rect class="cls-2" x="1680.5" y="338" width="120" height="67.5"/>
        <rect x="1680.5" y="270.5" width="120" height="67.5"/>
        <rect class="cls-2" x="1680.5" y="203" width="120" height="67.5"/>
        <rect x="1680.5" y="135.5" width="120" height="67.5"/>
        <rect class="cls-2" x="1680.5" y="68" width="120" height="67.5"/>
        <rect x="1680.5" y=".5" width="120" height="67.5"/>
        <rect x="1560.5" y="1013" width="120" height="67.5"/>
        <rect class="cls-2" x="1560.5" y="945.5" width="120" height="67.5"/>
        <rect x="1560.5" y="878" width="120" height="67.5"/>
        <rect class="cls-2" x="1560.5" y="810.5" width="120" height="67.5"/>
        <rect x="1560.5" y="743" width="120" height="67.5"/>
        <rect class="cls-2" x="1560.5" y="675.5" width="120" height="67.5"/>
        <rect x="1560.5" y="608" width="120" height="67.5"/>
        <rect class="cls-2" x="1560.5" y="540.5" width="120" height="67.5"/>
        <rect x="1560.5" y="473" width="120" height="67.5"/>
        <rect class="cls-2" x="1560.5" y="405.5" width="120" height="67.5"/>
        <rect x="1560.5" y="338" width="120" height="67.5"/>
        <rect class="cls-2" x="1560.5" y="270.5" width="120" height="67.5"/>
        <rect x="1560.5" y="203" width="120" height="67.5"/>
        <rect class="cls-2" x="1560.5" y="135.5" width="120" height="67.5"/>
        <rect x="1560.5" y="68" width="120" height="67.5"/>
        <rect class="cls-2" x="1560.5" y=".5" width="120" height="67.5"/>
        <rect class="cls-2" x="1440.5" y="1013" width="120" height="67.5"/>
        <rect x="1440.5" y="945.5" width="120" height="67.5"/>
        <rect class="cls-2" x="1440.5" y="878" width="120" height="67.5"/>
        <rect x="1440.5" y="810.5" width="120" height="67.5"/>
        <rect class="cls-2" x="1440.5" y="743" width="120" height="67.5"/>
        <rect x="1440.5" y="675.5" width="120" height="67.5"/>
        <rect class="cls-2" x="1440.5" y="608" width="120" height="67.5"/>
        <rect x="1440.5" y="540.5" width="120" height="67.5"/>
        <rect class="cls-2" x="1440.5" y="473" width="120" height="67.5"/>
        <rect x="1440.5" y="405.5" width="120" height="67.5"/>
        <rect class="cls-2" x="1440.5" y="338" width="120" height="67.5"/>
        <rect x="1440.5" y="270.5" width="120" height="67.5"/>
        <rect class="cls-2" x="1440.5" y="203" width="120" height="67.5"/>
        <rect x="1440.5" y="135.5" width="120" height="67.5"/>
        <rect class="cls-2" x="1440.5" y="68" width="120" height="67.5"/>
        <rect x="1440.5" y=".5" width="120" height="67.5"/>
        <rect x="1320.5" y="1013" width="120" height="67.5"/>
        <rect class="cls-2" x="1320.5" y="945.5" width="120" height="67.5"/>
        <rect x="1320.5" y="878" width="120" height="67.5"/>
        <rect class="cls-2" x="1320.5" y="810.5" width="120" height="67.5"/>
        <rect x="1320.5" y="743" width="120" height="67.5"/>
        <rect class="cls-2" x="1320.5" y="675.5" width="120" height="67.5"/>
        <rect x="1320.5" y="608" width="120" height="67.5"/>
        <rect class="cls-2" x="1320.5" y="540.5" width="120" height="67.5"/>
        <rect x="1320.5" y="473" width="120" height="67.5"/>
        <rect class="cls-2" x="1320.5" y="405.5" width="120" height="67.5"/>
        <rect x="1320.5" y="338" width="120" height="67.5"/>
        <rect class="cls-2" x="1320.5" y="270.5" width="120" height="67.5"/>
        <rect x="1320.5" y="203" width="120" height="67.5"/>
        <rect class="cls-2" x="1320.5" y="135.5" width="120" height="67.5"/>
        <rect x="1320.5" y="68" width="120" height="67.5"/>
        <rect class="cls-2" x="1320.5" y=".5" width="120" height="67.5"/>
        <rect class="cls-2" x="1200.5" y="1013" width="120" height="67.5"/>
        <rect x="1200.5" y="945.5" width="120" height="67.5"/>
        <rect class="cls-2" x="1200.5" y="878" width="120" height="67.5"/>
        <rect x="1200.5" y="810.5" width="120" height="67.5"/>
        <rect class="cls-2" x="1200.5" y="743" width="120" height="67.5"/>
        <rect x="1200.5" y="675.5" width="120" height="67.5"/>
        <rect class="cls-2" x="1200.5" y="608" width="120" height="67.5"/>
        <rect x="1200.5" y="540.5" width="120" height="67.5"/>
        <rect class="cls-2" x="1200.5" y="473" width="120" height="67.5"/>
        <rect x="1200.5" y="405.5" width="120" height="67.5"/>
        <rect class="cls-2" x="1200.5" y="338" width="120" height="67.5"/>
        <rect x="1200.5" y="270.5" width="120" height="67.5"/>
        <rect class="cls-2" x="1200.5" y="203" width="120" height="67.5"/>
        <rect x="1200.5" y="135.5" width="120" height="67.5"/>
        <rect class="cls-2" x="1200.5" y="68" width="120" height="67.5"/>
        <rect x="1200.5" y=".5" width="120" height="67.5"/>
        <rect x="1080.5" y="1013" width="120" height="67.5"/>
        <rect class="cls-2" x="1080.5" y="945.5" width="120" height="67.5"/>
        <rect x="1080.5" y="878" width="120" height="67.5"/>
        <rect class="cls-2" x="1080.5" y="810.5" width="120" height="67.5"/>
        <rect x="1080.5" y="743" width="120" height="67.5"/>
        <rect class="cls-2" x="1080.5" y="675.5" width="120" height="67.5"/>
        <rect x="1080.5" y="608" width="120" height="67.5"/>
        <rect class="cls-2" x="1080.5" y="540.5" width="120" height="67.5"/>
        <rect x="1080.5" y="473" width="120" height="67.5"/>
        <rect class="cls-2" x="1080.5" y="405.5" width="120" height="67.5"/>
        <rect x="1080.5" y="338" width="120" height="67.5"/>
        <rect class="cls-2" x="1080.5" y="270.5" width="120" height="67.5"/>
        <rect x="1080.5" y="203" width="120" height="67.5"/>
        <rect class="cls-2" x="1080.5" y="135.5" width="120" height="67.5"/>
        <rect x="1080.5" y="68" width="120" height="67.5"/>
        <rect class="cls-2" x="1080.5" y=".5" width="120" height="67.5"/>
        <rect class="cls-2" x="960.5" y="1013" width="120" height="67.5"/>
        <rect x="960.5" y="945.5" width="120" height="67.5"/>
        <rect class="cls-2" x="960.5" y="878" width="120" height="67.5"/>
        <rect x="960.5" y="810.5" width="120" height="67.5"/>
        <rect class="cls-2" x="960.5" y="743" width="120" height="67.5"/>
        <rect x="960.5" y="675.5" width="120" height="67.5"/>
        <rect class="cls-2" x="960.5" y="608" width="120" height="67.5"/>
        <rect x="960.5" y="540.5" width="120" height="67.5"/>
        <rect class="cls-2" x="960.5" y="473" width="120" height="67.5"/>
        <rect x="960.5" y="405.5" width="120" height="67.5"/>
        <rect class="cls-2" x="960.5" y="338" width="120" height="67.5"/>
        <rect x="960.5" y="270.5" width="120" height="67.5"/>
        <rect class="cls-2" x="960.5" y="203" width="120" height="67.5"/>
        <rect x="960.5" y="135.5" width="120" height="67.5"/>
        <rect class="cls-2" x="960.5" y="68" width="120" height="67.5"/>
        <rect x="960.5" y=".5" width="120" height="67.5"/>
        <rect x="840.5" y="1013" width="120" height="67.5"/>
        <rect class="cls-2" x="840.5" y="945.5" width="120" height="67.5"/>
        <rect x="840.5" y="878" width="120" height="67.5"/>
        <rect class="cls-2" x="840.5" y="810.5" width="120" height="67.5"/>
        <rect x="840.5" y="743" width="120" height="67.5"/>
        <rect class="cls-2" x="840.5" y="675.5" width="120" height="67.5"/>
        <rect x="840.5" y="608" width="120" height="67.5"/>
        <rect class="cls-2" x="840.5" y="540.5" width="120" height="67.5"/>
        <rect x="840.5" y="473" width="120" height="67.5"/>
        <rect class="cls-2" x="840.5" y="405.5" width="120" height="67.5"/>
        <rect x="840.5" y="338" width="120" height="67.5"/>
        <rect class="cls-2" x="840.5" y="270.5" width="120" height="67.5"/>
        <rect x="840.5" y="203" width="120" height="67.5"/>
        <rect class="cls-2" x="840.5" y="135.5" width="120" height="67.5"/>
        <rect x="840.5" y="68" width="120" height="67.5"/>
        <rect class="cls-2" x="840.5" y=".5" width="120" height="67.5"/>
        <rect class="cls-2" x="720.5" y="1013" width="120" height="67.5"/>
        <rect x="720.5" y="945.5" width="120" height="67.5"/>
        <rect class="cls-2" x="720.5" y="878" width="120" height="67.5"/>
        <rect x="720.5" y="810.5" width="120" height="67.5"/>
        <rect class="cls-2" x="720.5" y="743" width="120" height="67.5"/>
        <rect x="720.5" y="675.5" width="120" height="67.5"/>
        <rect class="cls-2" x="720.5" y="608" width="120" height="67.5"/>
        <rect x="720.5" y="540.5" width="120" height="67.5"/>
        <rect class="cls-2" x="720.5" y="473" width="120" height="67.5"/>
        <rect x="720.5" y="405.5" width="120" height="67.5"/>
        <rect class="cls-2" x="720.5" y="338" width="120" height="67.5"/>
        <rect x="720.5" y="270.5" width="120" height="67.5"/>
        <rect class="cls-2" x="720.5" y="203" width="120" height="67.5"/>
        <rect x="720.5" y="135.5" width="120" height="67.5"/>
        <rect class="cls-2" x="720.5" y="68" width="120" height="67.5"/>
        <rect x="720.5" y=".5" width="120" height="67.5"/>
        <rect x="600.5" y="1013" width="120" height="67.5"/>
        <rect class="cls-2" x="600.5" y="945.5" width="120" height="67.5"/>
        <rect x="600.5" y="878" width="120" height="67.5"/>
        <rect class="cls-2" x="600.5" y="810.5" width="120" height="67.5"/>
        <rect x="600.5" y="743" width="120" height="67.5"/>
        <rect class="cls-2" x="600.5" y="675.5" width="120" height="67.5"/>
        <rect x="600.5" y="608" width="120" height="67.5"/>
        <rect class="cls-2" x="600.5" y="540.5" width="120" height="67.5"/>
        <rect x="600.5" y="473" width="120" height="67.5"/>
        <rect class="cls-2" x="600.5" y="405.5" width="120" height="67.5"/>
        <rect x="600.5" y="338" width="120" height="67.5"/>
        <rect class="cls-2" x="600.5" y="270.5" width="120" height="67.5"/>
        <rect x="600.5" y="203" width="120" height="67.5"/>
        <rect class="cls-2" x="600.5" y="135.5" width="120" height="67.5"/>
        <rect x="600.5" y="68" width="120" height="67.5"/>
        <rect class="cls-2" x="600.5" y=".5" width="120" height="67.5"/>
        <rect class="cls-2" x="480.5" y="1013" width="120" height="67.5"/>
        <rect x="480.5" y="945.5" width="120" height="67.5"/>
        <rect class="cls-2" x="480.5" y="878" width="120" height="67.5"/>
        <rect x="480.5" y="810.5" width="120" height="67.5"/>
        <rect class="cls-2" x="480.5" y="743" width="120" height="67.5"/>
        <rect x="480.5" y="675.5" width="120" height="67.5"/>
        <rect class="cls-2" x="480.5" y="608" width="120" height="67.5"/>
        <rect x="480.5" y="540.5" width="120" height="67.5"/>
        <rect class="cls-2" x="480.5" y="473" width="120" height="67.5"/>
        <rect x="480.5" y="405.5" width="120" height="67.5"/>
        <rect class="cls-2" x="480.5" y="338" width="120" height="67.5"/>
        <rect x="480.5" y="270.5" width="120" height="67.5"/>
        <rect class="cls-2" x="480.5" y="203" width="120" height="67.5"/>
        <rect x="480.5" y="135.5" width="120" height="67.5"/>
        <rect class="cls-2" x="480.5" y="68" width="120" height="67.5"/>
        <rect x="480.5" y=".5" width="120" height="67.5"/>
        <rect x="360.5" y="1013" width="120" height="67.5"/>
        <rect class="cls-2" x="360.5" y="945.5" width="120" height="67.5"/>
        <rect x="360.5" y="878" width="120" height="67.5"/>
        <rect class="cls-2" x="360.5" y="810.5" width="120" height="67.5"/>
        <rect x="360.5" y="743" width="120" height="67.5"/>
        <rect class="cls-2" x="360.5" y="675.5" width="120" height="67.5"/>
        <rect x="360.5" y="608" width="120" height="67.5"/>
        <rect class="cls-2" x="360.5" y="540.5" width="120" height="67.5"/>
        <rect x="360.5" y="473" width="120" height="67.5"/>
        <rect class="cls-2" x="360.5" y="405.5" width="120" height="67.5"/>
        <rect x="360.5" y="338" width="120" height="67.5"/>
        <rect class="cls-2" x="360.5" y="270.5" width="120" height="67.5"/>
        <rect x="360.5" y="203" width="120" height="67.5"/>
        <rect class="cls-2" x="360.5" y="135.5" width="120" height="67.5"/>
        <rect x="360.5" y="68" width="120" height="67.5"/>
        <rect class="cls-2" x="360.5" y=".5" width="120" height="67.5"/>
        <rect class="cls-2" x="240.5" y="1013" width="120" height="67.5"/>
        <rect x="240.5" y="945.5" width="120" height="67.5"/>
        <rect class="cls-2" x="240.5" y="878" width="120" height="67.5"/>
        <rect x="240.5" y="810.5" width="120" height="67.5"/>
        <rect class="cls-2" x="240.5" y="743" width="120" height="67.5"/>
        <rect x="240.5" y="675.5" width="120" height="67.5"/>
        <rect class="cls-2" x="240.5" y="608" width="120" height="67.5"/>
        <rect x="240.5" y="540.5" width="120" height="67.5"/>
        <rect class="cls-2" x="240.5" y="473" width="120" height="67.5"/>
        <rect x="240.5" y="405.5" width="120" height="67.5"/>
        <rect class="cls-2" x="240.5" y="338" width="120" height="67.5"/>
        <rect x="240.5" y="270.5" width="120" height="67.5"/>
        <rect class="cls-2" x="240.5" y="203" width="120" height="67.5"/>
        <rect x="240.5" y="135.5" width="120" height="67.5"/>
        <rect class="cls-2" x="240.5" y="68" width="120" height="67.5"/>
        <rect x="240.5" y=".5" width="120" height="67.5"/>
        <rect x="120.5" y="1013" width="120" height="67.5"/>
        <rect class="cls-2" x="120.5" y="945.5" width="120" height="67.5"/>
        <rect x="120.5" y="878" width="120" height="67.5"/>
        <rect class="cls-2" x="120.5" y="810.5" width="120" height="67.5"/>
        <rect x="120.5" y="743" width="120" height="67.5"/>
        <rect class="cls-2" x="120.5" y="675.5" width="120" height="67.5"/>
        <rect x="120.5" y="608" width="120" height="67.5"/>
        <rect class="cls-2" x="120.5" y="540.5" width="120" height="67.5"/>
        <rect x="120.5" y="473" width="120" height="67.5"/>
        <rect class="cls-2" x="120.5" y="405.5" width="120" height="67.5"/>
        <rect x="120.5" y="338" width="120" height="67.5"/>
        <rect class="cls-2" x="120.5" y="270.5" width="120" height="67.5"/>
        <rect x="120.5" y="203" width="120" height="67.5"/>
        <rect class="cls-2" x="120.5" y="135.5" width="120" height="67.5"/>
        <rect x="120.5" y="68" width="120" height="67.5"/>
        <rect class="cls-2" x="120.5" y=".5" width="120" height="67.5"/>
        <rect class="cls-2" x=".5" y="1013" width="120" height="67.5"/>
        <rect x=".5" y="945.5" width="120" height="67.5"/>
        <rect class="cls-2" x=".5" y="878" width="120" height="67.5"/>
        <rect x=".5" y="810.5" width="120" height="67.5"/>
        <rect class="cls-2" x=".5" y="743" width="120" height="67.5"/>
        <rect x=".5" y="675.5" width="120" height="67.5"/>
        <rect class="cls-2" x=".5" y="608" width="120" height="67.5"/>
        <rect x=".5" y="540.5" width="120" height="67.5"/>
        <rect class="cls-2" x=".5" y="473" width="120" height="67.5"/>
        <rect x=".5" y="405.5" width="120" height="67.5"/>
        <rect class="cls-2" x=".5" y="338" width="120" height="67.5"/>
        <rect x=".5" y="270.5" width="120" height="67.5"/>
        <rect class="cls-2" x=".5" y="203" width="120" height="67.5"/>
        <rect x=".5" y="135.5" width="120" height="67.5"/>
        <rect class="cls-2" x=".5" y="68" width="120" height="67.5"/>
        <rect x=".5" y=".5" width="120" height="67.5"/>
      </g>
      <g>
        <polygon class="cls-3" points=".5 68 .5 .5 120.5 .5 240.5 .5 360.5 .5 480.5 .5 600.5 .5 720.5 .5 840.5 .5 960.5 .5 1080.5 .5 1200.5 .5 1320.5 .5 1440.5 .5 1560.5 .5 1680.5 .5 1800.5 .5 1920.5 .5 1920.5 68 1920.5 135.5 1920.5 203 1920.5 270.5 1920.5 338 1920.5 405.5 1920.5 473 1920.5 540.5 1920.5 608 1920.5 675.5 1920.5 743 1920.5 810.5 1920.5 878 1920.5 945.5 1920.5 1013 1920.5 1080.5 1800.5 1080.5 1680.5 1080.5 1560.5 1080.5 1440.5 1080.5 1320.5 1080.5 1200.5 1080.5 1080.5 1080.5 960.5 1080.5 840.5 1080.5 720.5 1080.5 600.5 1080.5 480.5 1080.5 360.5 1080.5 240.5 1080.5 120.5 1080.5 .5 1080.5 .5 1013 .5 945.5 .5 878 .5 810.5 .5 743 .5 675.5 .5 608 .5 540.5 .5 473 .5 405.5 .5 338 .5 270.5 .5 203 .5 135.5 .5 68"/>
        <polyline class="cls-3" points=".5 1013 120.5 1013 240.5 1013 360.5 1013 480.5 1013 600.5 1013 720.5 1013 840.5 1013 960.5 1013 1080.5 1013 1200.5 1013 1320.5 1013 1440.5 1013 1560.5 1013 1680.5 1013 1800.5 1013 1920.5 1013"/>
        <polyline class="cls-3" points=".5 945.5 120.5 945.5 240.5 945.5 360.5 945.5 480.5 945.5 600.5 945.5 720.5 945.5 840.5 945.5 960.5 945.5 1080.5 945.5 1200.5 945.5 1320.5 945.5 1440.5 945.5 1560.5 945.5 1680.5 945.5 1800.5 945.5 1920.5 945.5"/>
        <polyline class="cls-3" points=".5 878 120.5 878 240.5 878 360.5 878 480.5 878 600.5 878 720.5 878 840.5 878 960.5 878 1080.5 878 1200.5 878 1320.5 878 1440.5 878 1560.5 878 1680.5 878 1800.5 878 1920.5 878"/>
        <polyline class="cls-3" points=".5 810.5 120.5 810.5 240.5 810.5 360.5 810.5 480.5 810.5 600.5 810.5 720.5 810.5 840.5 810.5 960.5 810.5 1080.5 810.5 1200.5 810.5 1320.5 810.5 1440.5 810.5 1560.5 810.5 1680.5 810.5 1800.5 810.5 1920.5 810.5"/>
        <polyline class="cls-3" points=".5 743 120.5 743 240.5 743 360.5 743 480.5 743 600.5 743 720.5 743 840.5 743 960.5 743 1080.5 743 1200.5 743 1320.5 743 1440.5 743 1560.5 743 1680.5 743 1800.5 743 1920.5 743"/>
        <polyline class="cls-3" points=".5 675.5 120.5 675.5 240.5 675.5 360.5 675.5 480.5 675.5 600.5 675.5 720.5 675.5 840.5 675.5 960.5 675.5 1080.5 675.5 1200.5 675.5 1320.5 675.5 1440.5 675.5 1560.5 675.5 1680.5 675.5 1800.5 675.5 1920.5 675.5"/>
        <polyline class="cls-3" points=".5 608 120.5 608 240.5 608 360.5 608 480.5 608 600.5 608 720.5 608 840.5 608 960.5 608 1080.5 608 1200.5 608 1320.5 608 1440.5 608 1560.5 608 1680.5 608 1800.5 608 1920.5 608"/>
        <polyline class="cls-3" points=".5 540.5 120.5 540.5 240.5 540.5 360.5 540.5 480.5 540.5 600.5 540.5 720.5 540.5 840.5 540.5 960.5 540.5 1080.5 540.5 1200.5 540.5 1320.5 540.5 1440.5 540.5 1560.5 540.5 1680.5 540.5 1800.5 540.5 1920.5 540.5"/>
        <polyline class="cls-3" points=".5 473 120.5 473 240.5 473 360.5 473 480.5 473 600.5 473 720.5 473 840.5 473 960.5 473 1080.5 473 1200.5 473 1320.5 473 1440.5 473 1560.5 473 1680.5 473 1800.5 473 1920.5 473"/>
        <polyline class="cls-3" points=".5 405.5 120.5 405.5 240.5 405.5 360.5 405.5 480.5 405.5 600.5 405.5 720.5 405.5 840.5 405.5 960.5 405.5 1080.5 405.5 1200.5 405.5 1320.5 405.5 1440.5 405.5 1560.5 405.5 1680.5 405.5 1800.5 405.5 1920.5 405.5"/>
        <polyline class="cls-3" points=".5 338 120.5 338 240.5 338 360.5 338 480.5 338 600.5 338 720.5 338 840.5 338 960.5 338 1080.5 338 1200.5 338 1320.5 338 1440.5 338 1560.5 338 1680.5 338 1800.5 338 1920.5 338"/>
        <polyline class="cls-3" points=".5 270.5 120.5 270.5 240.5 270.5 360.5 270.5 480.5 270.5 600.5 270.5 720.5 270.5 840.5 270.5 960.5 270.5 1080.5 270.5 1200.5 270.5 1320.5 270.5 1440.5 270.5 1560.5 270.5 1680.5 270.5 1800.5 270.5 1920.5 270.5"/>
        <polyline class="cls-3" points=".5 203 120.5 203 240.5 203 360.5 203 480.5 203 600.5 203 720.5 203 840.5 203 960.5 203 1080.5 203 1200.5 203 1320.5 203 1440.5 203 1560.5 203 1680.5 203 1800.5 203 1920.5 203"/>
        <polyline class="cls-3" points=".5 135.5 120.5 135.5 240.5 135.5 360.5 135.5 480.5 135.5 600.5 135.5 720.5 135.5 840.5 135.5 960.5 135.5 1080.5 135.5 1200.5 135.5 1320.5 135.5 1440.5 135.5 1560.5 135.5 1680.5 135.5 1800.5 135.5 1920.5 135.5"/>
        <polyline class="cls-3" points=".5 68 120.5 68 240.5 68 360.5 68 480.5 68 600.5 68 720.5 68 840.5 68 960.5 68 1080.5 68 1200.5 68 1320.5 68 1440.5 68 1560.5 68 1680.5 68 1800.5 68 1920.5 68"/>
        <polyline class="cls-3" points="1800.5 .5 1800.5 68 1800.5 135.5 1800.5 203 1800.5 270.5 1800.5 338 1800.5 405.5 1800.5 473 1800.5 540.5 1800.5 608 1800.5 675.5 1800.5 743 1800.5 810.5 1800.5 878 1800.5 945.5 1800.5 1013 1800.5 1080.5"/>
        <polyline class="cls-3" points="1680.5 .5 1680.5 68 1680.5 135.5 1680.5 203 1680.5 270.5 1680.5 338 1680.5 405.5 1680.5 473 1680.5 540.5 1680.5 608 1680.5 675.5 1680.5 743 1680.5 810.5 1680.5 878 1680.5 945.5 1680.5 1013 1680.5 1080.5"/>
        <polyline class="cls-3" points="1560.5 .5 1560.5 68 1560.5 135.5 1560.5 203 1560.5 270.5 1560.5 338 1560.5 405.5 1560.5 473 1560.5 540.5 1560.5 608 1560.5 675.5 1560.5 743 1560.5 810.5 1560.5 878 1560.5 945.5 1560.5 1013 1560.5 1080.5"/>
        <polyline class="cls-3" points="1440.5 .5 1440.5 68 1440.5 135.5 1440.5 203 1440.5 270.5 1440.5 338 1440.5 405.5 1440.5 473 1440.5 540.5 1440.5 608 1440.5 675.5 1440.5 743 1440.5 810.5 1440.5 878 1440.5 945.5 1440.5 1013 1440.5 1080.5"/>
        <polyline class="cls-3" points="1320.5 .5 1320.5 68 1320.5 135.5 1320.5 203 1320.5 270.5 1320.5 338 1320.5 405.5 1320.5 473 1320.5 540.5 1320.5 608 1320.5 675.5 1320.5 743 1320.5 810.5 1320.5 878 1320.5 945.5 1320.5 1013 1320.5 1080.5"/>
        <polyline class="cls-3" points="1200.5 .5 1200.5 68 1200.5 135.5 1200.5 203 1200.5 270.5 1200.5 338 1200.5 405.5 1200.5 473 1200.5 540.5 1200.5 608 1200.5 675.5 1200.5 743 1200.5 810.5 1200.5 878 1200.5 945.5 1200.5 1013 1200.5 1080.5"/>
        <polyline class="cls-3" points="1080.5 .5 1080.5 68 1080.5 135.5 1080.5 203 1080.5 270.5 1080.5 338 1080.5 405.5 1080.5 473 1080.5 540.5 1080.5 608 1080.5 675.5 1080.5 743 1080.5 810.5 1080.5 878 1080.5 945.5 1080.5 1013 1080.5 1080.5"/>
        <polyline class="cls-3" points="960.5 .5 960.5 68 960.5 135.5 960.5 203 960.5 270.5 960.5 338 960.5 405.5 960.5 473 960.5 540.5 960.5 608 960.5 675.5 960.5 743 960.5 810.5 960.5 878 960.5 945.5 960.5 1013 960.5 1080.5"/>
        <polyline class="cls-3" points="840.5 .5 840.5 68 840.5 135.5 840.5 203 840.5 270.5 840.5 338 840.5 405.5 840.5 473 840.5 540.5 840.5 608 840.5 675.5 840.5 743 840.5 810.5 840.5 878 840.5 945.5 840.5 1013 840.5 1080.5"/>
        <polyline class="cls-3" points="720.5 .5 720.5 68 720.5 135.5 720.5 203 720.5 270.5 720.5 338 720.5 405.5 720.5 473 720.5 540.5 720.5 608 720.5 675.5 720.5 743 720.5 810.5 720.5 878 720.5 945.5 720.5 1013 720.5 1080.5"/>
        <polyline class="cls-3" points="600.5 .5 600.5 68 600.5 135.5 600.5 203 600.5 270.5 600.5 338 600.5 405.5 600.5 473 600.5 540.5 600.5 608 600.5 675.5 600.5 743 600.5 810.5 600.5 878 600.5 945.5 600.5 1013 600.5 1080.5"/>
        <polyline class="cls-3" points="480.5 .5 480.5 68 480.5 135.5 480.5 203 480.5 270.5 480.5 338 480.5 405.5 480.5 473 480.5 540.5 480.5 608 480.5 675.5 480.5 743 480.5 810.5 480.5 878 480.5 945.5 480.5 1013 480.5 1080.5"/>
        <polyline class="cls-3" points="360.5 .5 360.5 68 360.5 135.5 360.5 203 360.5 270.5 360.5 338 360.5 405.5 360.5 473 360.5 540.5 360.5 608 360.5 675.5 360.5 743 360.5 810.5 360.5 878 360.5 945.5 360.5 1013 360.5 1080.5"/>
        <polyline class="cls-3" points="240.5 .5 240.5 68 240.5 135.5 240.5 203 240.5 270.5 240.5 338 240.5 405.5 240.5 473 240.5 540.5 240.5 608 240.5 675.5 240.5 743 240.5 810.5 240.5 878 240.5 945.5 240.5 1013 240.5 1080.5"/>
        <polyline class="cls-3" points="120.5 .5 120.5 68 120.5 135.5 120.5 203 120.5 270.5 120.5 338 120.5 405.5 120.5 473 120.5 540.5 120.5 608 120.5 675.5 120.5 743 120.5 810.5 120.5 878 120.5 945.5 120.5 1013 120.5 1080.5"/>
      </g>
    </g>
  </g>
</svg>