<?xml version="1.0" encoding="UTF-8"?>
<svg id="Layer_1" data-name="Layer 1" xmlns="http://www.w3.org/2000/svg" viewBox="0 0 1920 1080">
  <defs>
    <style>
      .cls-1 {
        fill: #001430;
      }
    </style>
  </defs>
  <path class="cls-1" d="m388.36,916.5c0-37.45,10.23-72.91,28.48-104.51-45.83-25.88-101.06-40.99-160.5-40.99-158.69,0-287.34,107.68-287.34,240.5,0,23.8,4.15,46.79,11.85,68.5h484.15c-47.55-42.91-76.64-100.36-76.64-163.5Z"/>
  <path class="cls-1" d="m481,1011.5c0,23.8-3.47,46.79-9.91,68.5h205.68c18.12-81.37,77.46-147.2,154.98-174.44-5.72-127.75-111.08-229.56-240.24-229.56-95.37,0-177.77,55.51-216.66,135.99,64.04,43.21,106.16,116.44,106.16,199.51Z"/>
  <path class="cls-1" d="m415.15,1080h55.94c6.44-21.71,9.91-44.7,9.91-68.5,0-83.07-42.12-156.3-106.16-199.51-15.27,31.6-23.84,67.06-23.84,104.51,0,63.14,24.35,120.59,64.15,163.5Z"/>
  <path class="cls-1" d="m767.85,1080h253.04c-14.67-31.1-22.89-65.84-22.89-102.5,0-22.79,3.17-44.84,9.09-65.73-29.3-12.71-61.62-19.77-95.59-19.77-27.96,0-54.8,4.79-79.76,13.56.16,3.63.26,7.27.26,10.94,0,63.14-24.35,120.59-64.15,163.5Z"/>
  <path class="cls-1" d="m676.76,1080h91.09c39.8-42.91,64.15-100.36,64.15-163.5,0-3.67-.1-7.31-.26-10.94-77.52,27.24-136.86,93.07-154.98,174.44Z"/>
  <path class="cls-1" d="m1146.24,1080h173.09c-20.55-35.43-32.33-76.59-32.33-120.5,0-73.09,32.61-138.56,84.08-182.67-38.01-25.16-83.58-39.83-132.58-39.83-110.03,0-202.81,73.9-231.41,174.77,69.7,30.23,122.28,92.5,139.14,168.23Z"/>
  <path class="cls-1" d="m1020.89,1080h125.35c-16.86-75.74-69.44-138-139.14-168.23-5.92,20.89-9.09,42.94-9.09,65.73,0,36.66,8.22,71.4,22.89,102.5Z"/>
  <path class="cls-1" d="m1478.83,968.92c43.05-65.03,116.84-107.92,200.67-107.92,25.11,0,49.32,3.85,72.08,10.99-35-89.55-122.13-152.99-224.08-152.99-59.73,0-114.37,21.78-156.42,57.83,62.8,41.57,104.94,111.83,107.75,192.09Z"/>
  <path class="cls-1" d="m1287,959.5c0,43.91,11.78,85.07,32.33,120.5h120.64c3.62-40.81,17.42-78.69,38.86-111.08-2.82-80.27-44.96-150.52-107.75-192.09-51.46,44.11-84.08,109.58-84.08,182.67Z"/>
  <path class="cls-1" d="m1700.67,1080h247.33c-11.74-98.2-103.07-179.44-225.87-208.01,14.3,27.12,22.15,56.63,22.15,87.51,0,43.91-15.88,85.07-43.61,120.5Z"/>
  <path class="cls-1" d="m1478.83,968.92c.1,2.85.17,5.71.17,8.58,0,36.66-8.22,71.4-22.89,102.5h279.56c20.55-35.43,32.33-76.59,32.33-120.5,0-30.87-5.82-60.39-16.42-87.51-22.76-7.14-46.97-10.99-72.08-10.99-83.82,0-157.62,42.89-200.67,107.92Z"/>
  <path class="cls-1" d="m1478.83,968.92c-21.44,32.39-35.25,70.27-38.86,111.08h16.14c14.67-31.1,22.89-65.84,22.89-102.5,0-2.87-.07-5.73-.17-8.58Z"/>
</svg>