<?xml version="1.0" encoding="utf-8"?>
<!-- Generator: Adobe Illustrator 27.1.1, SVG Export Plug-In . SVG Version: 6.00 Build 0)  -->
<svg version="1.1" id="Layer_1" xmlns="http://www.w3.org/2000/svg" xmlns:xlink="http://www.w3.org/1999/xlink" x="0px" y="0px"
	 viewBox="0 0 1012.9 483" style="enable-background:new 0 0 1012.9 483;" xml:space="preserve">
<style type="text/css">
	.st0{fill:#FFFFFF;}
	.st1{font-family:'LEMONMILK-Bold';}
	.st2{font-size:34.7206px;}
</style>
<path class="st0" d="M343.2,0L343.2,0c3.9,0,7,3.1,7,7v469c0,3.9-3.1,7-7,7l0,0c-3.9,0-7-3.1-7-7V7C336.2,3.1,339.3,0,343.2,0z"/>
<path class="st0" d="M663.9,0L663.9,0c3.9,0,7,3.1,7,7v469c0,3.9-3.1,7-7,7l0,0c-3.9,0-7-3.1-7-7V7C656.9,3.1,660,0,663.9,0z"/>
<path class="st0" d="M52.5,232h894c3.9,0,7,3.1,7,7l0,0c0,3.9-3.1,7-7,7h-894c-3.9,0-7-3.1-7-7l0,0C45.5,235.1,48.7,232,52.5,232z"
	/>
<text transform="matrix(1 0 0 1 81.2098 137.4622)" class="st0 st1 st2">Maintence</text>
<text transform="matrix(1 0 0 1 701.1167 115.4891)"><tspan x="0" y="0" class="st0 st1 st2">transmission </tspan><tspan x="70.9" y="41.7" class="st0 st1 st2">service</tspan></text>
<text transform="matrix(1 0 0 1 92.5065 354.3145)"><tspan x="0" y="0" class="st0 st1 st2">blue def </tspan><tspan x="-3.9" y="41.7" class="st0 st1 st2">services </tspan></text>
<text transform="matrix(1 0 0 1 748.7872 355.3145)"><tspan x="0" y="0" class="st0 st1 st2">engine </tspan><tspan x="-13.6" y="41.7" class="st0 st1 st2">services</tspan></text>
<text transform="matrix(1 0 0 1 441.9755 115.4891)"><tspan x="0" y="0" class="st0 st1 st2">state</tspan><tspan x="-67.4" y="41.7" class="st0 st1 st2">inspections</tspan></text>
<text transform="matrix(1 0 0 1 420.4447 374.9522)" class="st0 st1 st2">tune up</text>
</svg>
