<?xml version="1.0" encoding="UTF-8"?>
<svg id="Layer_1" data-name="Layer 1" xmlns="http://www.w3.org/2000/svg" viewBox="0 0 1386 1728">
  <defs>
    <style>
      .cls-1 {
        fill: none;
        stroke: #fff;
        stroke-miterlimit: 10;
        stroke-width: 30px;
      }

      .cls-2 {
        fill: #fff;
      }
    </style>
  </defs>
  <path class="cls-1" d="m1140,1108.14v378.18c0,61.45-57.55,106.68-117.26,92.16l-344.74-83.86-344.74,83.86c-59.71,14.53-117.26-30.7-117.26-92.16v-375.66c0-78.93,53.3-146.79,127.09-161.79l120.91-24.58,69-26.42,68.28-26.14c-24.72-8.16-47.72-20.4-68.28-35.97-53.15-40.25-90.02-102.73-98.25-174.48-48.09-4.63-85.75-47.11-85.75-98.82,0-47.04,31.17-86.45,73-96.67v-139.7c0-99.46,76.76-180.08,171.45-180.08h160.1c94.69,0,171.45,80.62,171.45,180.08v145.21c41.33,10.6,72,49.74,72,96.42,0,51.59-37.47,93.98-85.39,98.79-9.45,69.99-46.22,130.77-98.61,170.02-17.86,13.38-37.55,24.26-58.59,32.16l58.59,20.17,106,36.5,96.74,21.61c72.45,16.19,124.26,83.4,124.26,161.19Z"/>
  <line class="cls-1" x1="422" y1="413" x2="925" y2="413"/>
  <rect class="cls-1" x="557" y="315" width="232" height="98" rx="20.09" ry="20.09"/>
  <path class="cls-1" d="m901.18,503h0c-148.3,48.94-306.29,49.13-454.68.54l-1.66-.54-.63-.4c-28.59-18.38-31.08-62.94-4.76-85.07l5.39-4.53h456.35l4.74,3.81c27.38,22.03,24.85,67.98-4.74,86.19h0Z"/>
  <line class="cls-1" x1="912" y1="666" x2="925" y2="456"/>
  <line class="cls-1" x1="435" y1="661" x2="422" y2="450"/>
  <circle class="cls-2" cx="572.5" cy="604.5" r="26.5"/>
  <circle class="cls-2" cx="772.5" cy="604.5" r="26.5"/>
  <path class="cls-1" d="m630,730l2.93.95c30.97,10.04,64.67,7.2,93.52-7.89h0"/>
  <polyline class="cls-1" points="815.08 896.8 684 1265 542.55 897.25"/>
  <path class="cls-1" d="m806.81,1177.8l-51.81-108.8,59.43-164.52,94.57,26.52-72.04,244.41c-4.2,14.25-23.77,15.8-30.15,2.38Z"/>
  <path class="cls-1" d="m559.58,1164.37l45.42-95.37-59.43-164.52-94.57,26.52,67.83,230.15c5.68,19.26,32.12,21.35,40.75,3.22Z"/>
  <path class="cls-1" d="m216,1229h125.29c18.61,0,33.71,15.11,33.71,33.71v119.57c0,18.61-15.11,33.71-33.71,33.71h-125.29v-187h0Z"/>
  <path class="cls-1" d="m981,1229h125.29c18.61,0,33.71,15.11,33.71,33.71v119.57c0,18.61-15.11,33.71-33.71,33.71h-125.29v-187h0Z" transform="translate(2121 2645) rotate(-180)"/>
  <line class="cls-1" x1="368.6" y1="1264.93" x2="1147.46" y2="1427.2"/>
  <line class="cls-1" x1="984.5" y1="1265.4" x2="679.85" y2="1328.87"/>
  <line class="cls-1" x1="351.05" y1="1416.47" x2="702.85" y2="1500.55"/>
  <line class="cls-1" x1="474" y1="1287" x2="474" y2="1444"/>
  <line class="cls-1" x1="903" y1="1282" x2="903" y2="1376"/>
  <line class="cls-1" x1="592" y1="1034" x2="762" y2="1034"/>
</svg>