<?xml version="1.0" encoding="UTF-8"?>
<svg id="Layer_2" data-name="Layer 2" xmlns="http://www.w3.org/2000/svg" viewBox="0 0 1082 1082">
  <defs>
    <style>
      .cls-1 {
        letter-spacing: -.08em;
      }

      .cls-2, .cls-3 {
        fill: #001430;
      }

      .cls-3 {
        font-family: HiraKakuStdN-W8-83pv-RKSJ-H, 'Hiragino Kaku Gothic StdN';
        font-size: 83.38px;
      }
    </style>
  </defs>
  <g>
    <path class="cls-2" d="m378,366v277.64c0,.2-.16.36-.36.36h-189.64s6,36,43,58c37,22,45,26,56,67,10.81,40.29,35.14,56.44,54.96,61.73.64.17,1.19.57,1.55,1.13,2,3.12,10.15,13.42,28.49,9.14,30-7,12-35,33-47,0,0,31.97-22.97,79.92,8.95.05.03.09.08.12.13,1.71,3.29,57.5,110.23,91.96,129.92,0,0,9,50,32,73,0,0,17-4,51,19,0,0,21-8,48,11,0,0,16,3,20-15,0,0-31-28-23-84s111-108,111-108c0,0,16-7,12-17,0,0-12-11-4-19s19,6,19,6l46-28s16-16,11-43l-6-20s12-7,13-23-16-27-16-27c0,0,0-24-23-33l-8-102-36-4s-16-15-35-15-52,16-52,16c0,0-9-8-24-9s-51,2-51,2c0,0-14-2-22-12h-30s-22,1-35-17c0,0-4,0-9,4,0,0-7-8-15-8l-12-1v-113h-161Z"/>
    <path class="cls-2" d="m138,577c28-65,84-137,112-165,21.97-21.97,52-23,70-19s8,18,8,18l-35,33s-45,49-72.97,95-30.03,63-40.03,88-18.69,29-18.69,29c-3.4,1.8-6.92,3.06-10.43,3.9-19.11,4.57-39.03-3.47-50.42-19.48-25.04-35.22-41.52-45.53-49.46-53.82-9-9.4,0-19.6,0-19.6l23-21s19-12,39,10,25,21,25,21Z"/>
  </g>
  <text class="cls-3" transform="translate(79.99 132.24)"><tspan x="0" y="0">OFFICIAL VEHICLE</tspan><tspan x="-79.13" y="100.06">INSPECTION S</tspan><tspan class="cls-1" x="612.03" y="100.06">TA</tspan><tspan x="735.69" y="100.06">TION</tspan></text>
</svg>